<svg xmlns="http://www.w3.org/2000/svg" xmlns:xlink="http://www.w3.org/1999/xlink" width="500" zoomAndPan="magnify" viewBox="0 0 375 374.999991" height="500" preserveAspectRatio="xMidYMid meet" version="1.0"><defs><g/></defs><g fill="#ffffff" fill-opacity="1"><g transform="translate(54.732423, 202.424987)"><g><path d="M 5.359375 -32.90625 L 8.84375 -32.90625 L 8.84375 0 L 5.359375 0 Z M 5.359375 -32.90625 "/></g></g></g><g fill="#ffffff" fill-opacity="1"><g transform="translate(68.924046, 202.424987)"><g><path d="M 11.28125 0.234375 C 9.269531 0.234375 7.347656 -0.0507812 5.515625 -0.625 C 3.679688 -1.207031 2.25 -1.9375 1.21875 -2.8125 L 2.71875 -5.453125 C 3.757812 -4.640625 5.0625 -3.972656 6.625 -3.453125 C 8.195312 -2.929688 9.828125 -2.671875 11.515625 -2.671875 C 13.773438 -2.671875 15.441406 -3.023438 16.515625 -3.734375 C 17.597656 -4.441406 18.140625 -5.4375 18.140625 -6.71875 C 18.140625 -7.625 17.84375 -8.335938 17.25 -8.859375 C 16.65625 -9.378906 15.898438 -9.769531 14.984375 -10.03125 C 14.078125 -10.300781 12.875 -10.5625 11.375 -10.8125 C 9.363281 -11.1875 7.75 -11.566406 6.53125 -11.953125 C 5.3125 -12.347656 4.269531 -13.015625 3.40625 -13.953125 C 2.539062 -14.898438 2.109375 -16.203125 2.109375 -17.859375 C 2.109375 -19.929688 2.96875 -21.625 4.6875 -22.9375 C 6.414062 -24.25 8.816406 -24.90625 11.890625 -24.90625 C 13.484375 -24.90625 15.078125 -24.691406 16.671875 -24.265625 C 18.273438 -23.847656 19.597656 -23.296875 20.640625 -22.609375 L 19.171875 -19.921875 C 17.140625 -21.335938 14.710938 -22.046875 11.890625 -22.046875 C 9.753906 -22.046875 8.144531 -21.664062 7.0625 -20.90625 C 5.988281 -20.15625 5.453125 -19.171875 5.453125 -17.953125 C 5.453125 -17.015625 5.753906 -16.265625 6.359375 -15.703125 C 6.972656 -15.140625 7.734375 -14.722656 8.640625 -14.453125 C 9.554688 -14.179688 10.8125 -13.90625 12.40625 -13.625 C 14.382812 -13.25 15.96875 -12.875 17.15625 -12.5 C 18.34375 -12.125 19.359375 -11.484375 20.203125 -10.578125 C 21.054688 -9.671875 21.484375 -8.414062 21.484375 -6.8125 C 21.484375 -4.65625 20.582031 -2.941406 18.78125 -1.671875 C 16.976562 -0.398438 14.476562 0.234375 11.28125 0.234375 Z M 11.28125 0.234375 "/></g></g></g><g fill="#ffffff" fill-opacity="1"><g transform="translate(91.903197, 202.424987)"><g><path d="M 13.296875 -24.90625 C 16.523438 -24.90625 19 -24.097656 20.71875 -22.484375 C 22.445312 -20.867188 23.3125 -18.484375 23.3125 -15.328125 L 23.3125 0 L 20.109375 0 L 20.109375 -3.859375 C 19.359375 -2.566406 18.253906 -1.5625 16.796875 -0.84375 C 15.335938 -0.125 13.609375 0.234375 11.609375 0.234375 C 8.847656 0.234375 6.648438 -0.421875 5.015625 -1.734375 C 3.390625 -3.054688 2.578125 -4.796875 2.578125 -6.953125 C 2.578125 -9.054688 3.335938 -10.75 4.859375 -12.03125 C 6.378906 -13.3125 8.800781 -13.953125 12.125 -13.953125 L 19.96875 -13.953125 L 19.96875 -15.46875 C 19.96875 -17.59375 19.375 -19.210938 18.1875 -20.328125 C 17 -21.441406 15.257812 -22 12.96875 -22 C 11.40625 -22 9.898438 -21.738281 8.453125 -21.21875 C 7.015625 -20.695312 5.78125 -19.984375 4.75 -19.078125 L 3.25 -21.578125 C 4.5 -22.640625 6 -23.457031 7.75 -24.03125 C 9.507812 -24.613281 11.359375 -24.90625 13.296875 -24.90625 Z M 12.125 -2.390625 C 14.007812 -2.390625 15.625 -2.820312 16.96875 -3.6875 C 18.3125 -4.550781 19.3125 -5.796875 19.96875 -7.421875 L 19.96875 -11.46875 L 12.21875 -11.46875 C 7.988281 -11.46875 5.875 -9.992188 5.875 -7.046875 C 5.875 -5.609375 6.421875 -4.472656 7.515625 -3.640625 C 8.617188 -2.804688 10.15625 -2.390625 12.125 -2.390625 Z M 12.125 -2.390625 "/></g></g></g><g fill="#ffffff" fill-opacity="1"><g transform="translate(119.628545, 202.424987)"><g><path d="M 27.21875 -24.71875 L 27.21875 9.125 L 23.875 9.125 L 23.875 -4.65625 C 22.84375 -3.050781 21.519531 -1.832031 19.90625 -1 C 18.289062 -0.175781 16.476562 0.234375 14.46875 0.234375 C 12.125 0.234375 10.019531 -0.285156 8.15625 -1.328125 C 6.289062 -2.378906 4.820312 -3.859375 3.75 -5.765625 C 2.6875 -7.679688 2.15625 -9.878906 2.15625 -12.359375 C 2.15625 -14.804688 2.6875 -16.984375 3.75 -18.890625 C 4.820312 -20.804688 6.296875 -22.285156 8.171875 -23.328125 C 10.054688 -24.378906 12.15625 -24.90625 14.46875 -24.90625 C 16.539062 -24.90625 18.398438 -24.46875 20.046875 -23.59375 C 21.691406 -22.71875 23.015625 -21.460938 24.015625 -19.828125 L 24.015625 -24.71875 Z M 14.765625 -2.71875 C 16.484375 -2.71875 18.039062 -3.117188 19.4375 -3.921875 C 20.832031 -4.722656 21.925781 -5.859375 22.71875 -7.328125 C 23.519531 -8.804688 23.921875 -10.484375 23.921875 -12.359375 C 23.921875 -14.242188 23.519531 -15.910156 22.71875 -17.359375 C 21.925781 -18.816406 20.832031 -19.953125 19.4375 -20.765625 C 18.039062 -21.585938 16.484375 -22 14.765625 -22 C 13.003906 -22 11.425781 -21.585938 10.03125 -20.765625 C 8.632812 -19.953125 7.535156 -18.816406 6.734375 -17.359375 C 5.941406 -15.910156 5.546875 -14.242188 5.546875 -12.359375 C 5.546875 -10.484375 5.941406 -8.804688 6.734375 -7.328125 C 7.535156 -5.859375 8.632812 -4.722656 10.03125 -3.921875 C 11.425781 -3.117188 13.003906 -2.71875 14.765625 -2.71875 Z M 14.765625 -2.71875 "/></g></g></g><g fill="#ffffff" fill-opacity="1"><g transform="translate(151.489204, 202.424987)"><g><path d="M 26.9375 -24.71875 L 26.9375 0 L 23.734375 0 L 23.734375 -4.515625 C 22.859375 -3.003906 21.648438 -1.832031 20.109375 -1 C 18.578125 -0.175781 16.828125 0.234375 14.859375 0.234375 C 11.628906 0.234375 9.082031 -0.664062 7.21875 -2.46875 C 5.351562 -4.269531 4.421875 -6.910156 4.421875 -10.390625 L 4.421875 -24.71875 L 7.75 -24.71875 L 7.75 -10.71875 C 7.75 -8.113281 8.390625 -6.132812 9.671875 -4.78125 C 10.960938 -3.4375 12.800781 -2.765625 15.1875 -2.765625 C 17.78125 -2.765625 19.828125 -3.554688 21.328125 -5.140625 C 22.835938 -6.722656 23.59375 -8.925781 23.59375 -11.75 L 23.59375 -24.71875 Z M 26.9375 -24.71875 "/></g></g></g><g fill="#ffffff" fill-opacity="1"><g transform="translate(183.114904, 202.424987)"><g><path d="M 26.171875 -11.328125 L 5.5 -11.328125 C 5.6875 -8.753906 6.671875 -6.675781 8.453125 -5.09375 C 10.242188 -3.507812 12.503906 -2.71875 15.234375 -2.71875 C 16.765625 -2.71875 18.171875 -2.992188 19.453125 -3.546875 C 20.742188 -4.097656 21.859375 -4.90625 22.796875 -5.96875 L 24.671875 -3.8125 C 23.578125 -2.488281 22.207031 -1.484375 20.5625 -0.796875 C 18.914062 -0.109375 17.109375 0.234375 15.140625 0.234375 C 12.597656 0.234375 10.347656 -0.304688 8.390625 -1.390625 C 6.429688 -2.472656 4.898438 -3.96875 3.796875 -5.875 C 2.703125 -7.78125 2.15625 -9.941406 2.15625 -12.359375 C 2.15625 -14.773438 2.679688 -16.9375 3.734375 -18.84375 C 4.785156 -20.757812 6.226562 -22.25 8.0625 -23.3125 C 9.894531 -24.375 11.953125 -24.90625 14.234375 -24.90625 C 16.523438 -24.90625 18.578125 -24.375 20.390625 -23.3125 C 22.210938 -22.25 23.640625 -20.769531 24.671875 -18.875 C 25.703125 -16.976562 26.21875 -14.804688 26.21875 -12.359375 Z M 14.234375 -22.046875 C 11.859375 -22.046875 9.863281 -21.285156 8.25 -19.765625 C 6.632812 -18.242188 5.71875 -16.257812 5.5 -13.8125 L 23.03125 -13.8125 C 22.8125 -16.257812 21.894531 -18.242188 20.28125 -19.765625 C 18.664062 -21.285156 16.648438 -22.046875 14.234375 -22.046875 Z M 14.234375 -22.046875 "/></g></g></g><g fill="#1be117" fill-opacity="1"><g transform="translate(211.517568, 201.674987)"><g><path d="M 4.089844 0.515625 C 6.484375 0.515625 8.363281 -1.035156 8.789062 -3.289062 C 9.304688 -5.921875 7.707031 -7.988281 4.980469 -7.988281 C 2.585938 -7.988281 0.75 -6.4375 0.28125 -4.136719 C -0.234375 -1.550781 1.363281 0.515625 4.089844 0.515625 Z M 4.089844 0.515625 "/></g></g></g><g fill="#1be117" fill-opacity="1"><g transform="translate(224.017468, 201.674987)"><g><path d="M 1.503906 0 L 14.664062 0 C 25.1875 0 33.085938 -6.0625 34.964844 -15.554688 C 36.9375 -25.566406 31.015625 -32.898438 20.867188 -32.898438 L 8.082031 -32.898438 Z M 10.433594 -6.859375 L 14.238281 -26.035156 L 19.644531 -26.035156 C 25.519531 -26.035156 28.574219 -22.324219 27.398438 -16.589844 C 26.222656 -10.761719 21.429688 -6.859375 15.507812 -6.859375 Z M 10.433594 -6.859375 "/></g></g></g><g fill="#1be117" fill-opacity="1"><g transform="translate(260.342375, 201.674987)"><g><path d="M 13.066406 0.65625 C 19.078125 0.65625 24.390625 -2.398438 27.492188 -7.753906 L 19.878906 -7.753906 C 18.375 -6.0625 16.121094 -5.074219 13.722656 -5.074219 C 10.386719 -5.074219 8.410156 -7.050781 8.507812 -10.292969 L 28.289062 -10.292969 C 30.359375 -19.128906 25.941406 -25.332031 17.386719 -25.332031 C 9.585938 -25.332031 3.429688 -20.300781 1.878906 -12.78125 C 0.28125 -4.886719 4.933594 0.65625 13.066406 0.65625 Z M 9.585938 -14.804688 C 10.996094 -17.765625 13.675781 -19.644531 16.964844 -19.644531 C 20.160156 -19.644531 22.085938 -17.90625 22.277344 -14.804688 Z M 9.585938 -14.804688 "/></g></g></g><g fill="#1be117" fill-opacity="1"><g transform="translate(290.84026, 201.674987)"><g><path d="M 8.222656 0 L 15.320312 0 L 30.59375 -24.671875 L 22.417969 -24.671875 L 18.046875 -16.917969 L 13.113281 -8.554688 L 11.464844 -16.917969 L 10.292969 -24.671875 L 2.867188 -24.671875 Z M 8.222656 0 "/></g></g></g><g fill="#a6a6a6" fill-opacity="1"><g transform="translate(30.064456, 206.624986)"><g><path d="M 20.039062 -7.019531 L 20.636719 -7.199219 L 21.058594 -8.578125 L 21.238281 -10.078125 L 21.355469 -10.796875 L 21.597656 -11.878906 L 21.65625 -12.238281 L 21.71875 -13.019531 L 21.238281 -13.5 L 20.757812 -13.917969 L 18.835938 -15.058594 L 17.519531 -15.71875 L 14.757812 -17.335938 L 12.957031 -18.359375 L 11.339844 -19.4375 L 11.398438 -19.859375 L 13.738281 -21.175781 L 14.878906 -21.777344 L 16.917969 -22.796875 L 20.335938 -24.65625 L 22.257812 -25.617188 L 23.277344 -26.15625 L 24.296875 -26.875 L 24.476562 -27.238281 L 24.65625 -27.898438 L 24.777344 -28.855469 L 24.898438 -29.578125 L 25.375 -31.796875 L 25.496094 -32.574219 L 25.617188 -33.894531 L 25.078125 -34.316406 L 22.496094 -33.175781 L 20.9375 -32.277344 L 18.898438 -31.136719 L 17.398438 -30.417969 L 16.679688 -30.054688 L 15.839844 -29.695312 L 14.816406 -28.976562 L 13.917969 -28.554688 L 12.957031 -28.015625 L 12.296875 -27.597656 L 11.398438 -27.117188 L 10.738281 -26.695312 L 9.300781 -25.976562 L 8.398438 -25.4375 L 7.558594 -24.957031 L 6.300781 -24.175781 L 4.980469 -23.457031 L 4.078125 -22.738281 L 3.660156 -22.136719 L 3.597656 -21.597656 L 3.480469 -21.117188 L 3.359375 -20.515625 L 3.179688 -19.378906 L 3.058594 -18.597656 L 3 -17.816406 L 3.238281 -16.917969 L 5.398438 -15.597656 L 6.539062 -14.816406 L 7.558594 -14.21875 L 8.457031 -13.617188 L 9.839844 -12.71875 L 10.859375 -12.117188 L 11.9375 -11.519531 L 12.898438 -10.917969 L 13.796875 -10.378906 L 14.816406 -9.898438 L 16.019531 -9.238281 L 16.679688 -8.820312 L 17.9375 -8.160156 L 19.019531 -7.4375 Z M 20.039062 -7.019531 "/></g></g></g><g fill="#a6a6a6" fill-opacity="1"><g transform="translate(320.876935, 206.624986)"><g><path d="M 2.339844 -7.257812 L 4.621094 -8.21875 L 6.71875 -9.238281 L 7.738281 -9.660156 L 8.820312 -10.140625 L 9.839844 -10.679688 L 10.558594 -10.917969 L 11.9375 -11.519531 L 12.898438 -12 L 13.738281 -12.359375 L 14.636719 -12.71875 L 15.597656 -13.136719 L 16.738281 -13.679688 L 18.238281 -14.339844 L 20.039062 -15.238281 L 21.238281 -15.957031 L 22.496094 -16.617188 L 23.277344 -17.21875 L 23.578125 -17.636719 L 23.9375 -19.378906 L 24.058594 -20.15625 L 24.355469 -22.015625 L 24.117188 -22.617188 L 22.976562 -23.515625 L 21.898438 -24.355469 L 20.757812 -25.195312 L 20.15625 -25.738281 L 19.496094 -26.214844 L 18.476562 -26.875 L 17.9375 -27.296875 L 17.277344 -27.777344 L 16.738281 -28.195312 L 15.179688 -29.277344 L 14.277344 -29.996094 L 13.4375 -30.476562 L 12.359375 -31.257812 L 11.339844 -31.976562 L 9.597656 -33.117188 L 7.257812 -34.734375 L 6.898438 -34.617188 L 6.660156 -34.253906 L 6.238281 -32.277344 L 5.9375 -30.476562 L 5.699219 -29.394531 L 5.640625 -28.738281 L 5.820312 -28.195312 L 6.597656 -27.476562 L 6.777344 -27.238281 L 7.5 -26.816406 L 8.640625 -25.917969 L 9.539062 -25.4375 L 11.277344 -24.117188 L 12.238281 -23.515625 L 12.957031 -23.097656 L 13.917969 -22.316406 L 14.699219 -21.777344 L 16.257812 -20.757812 L 16.257812 -20.398438 L 14.9375 -19.738281 L 13.019531 -18.898438 L 11.878906 -18.296875 L 6.960938 -16.257812 L 5.9375 -15.898438 L 4.621094 -15.238281 L 3.960938 -14.816406 L 3.480469 -14.398438 L 3.058594 -13.796875 L 2.699219 -12.417969 L 2.460938 -11.457031 L 2.21875 -10.257812 L 1.800781 -8.097656 L 1.980469 -7.558594 Z M 2.339844 -7.257812 "/></g></g></g></svg>