<svg xmlns="http://www.w3.org/2000/svg" xmlns:xlink="http://www.w3.org/1999/xlink" width="1000" zoomAndPan="magnify" viewBox="0 0 750 225" height="300" preserveAspectRatio="xMidYMid meet" version="1.0"><defs><g/></defs><g fill="#ffffff" fill-opacity="1"><g transform="translate(0, 158.010439)"><g><path d="M 14.734375 -90.4375 L 24.28125 -90.4375 L 24.28125 0 L 14.734375 0 Z M 14.734375 -90.4375 "/></g></g></g><g fill="#ffffff" fill-opacity="1"><g transform="translate(39.014635, 158.010439)"><g><path d="M 31 0.640625 C 25.488281 0.640625 20.210938 -0.15625 15.171875 -1.75 C 10.140625 -3.34375 6.203125 -5.34375 3.359375 -7.75 L 7.5 -14.984375 C 10.332031 -12.742188 13.898438 -10.910156 18.203125 -9.484375 C 22.515625 -8.066406 27 -7.359375 31.65625 -7.359375 C 37.851562 -7.359375 42.4375 -8.328125 45.40625 -10.265625 C 48.375 -12.203125 49.859375 -14.9375 49.859375 -18.46875 C 49.859375 -20.96875 49.039062 -22.925781 47.40625 -24.34375 C 45.769531 -25.769531 43.703125 -26.847656 41.203125 -27.578125 C 38.710938 -28.304688 35.398438 -29.019531 31.265625 -29.71875 C 25.753906 -30.75 21.316406 -31.800781 17.953125 -32.875 C 14.597656 -33.957031 11.734375 -35.789062 9.359375 -38.375 C 6.992188 -40.957031 5.8125 -44.53125 5.8125 -49.09375 C 5.8125 -54.78125 8.179688 -59.429688 12.921875 -63.046875 C 17.660156 -66.660156 24.25 -68.46875 32.6875 -68.46875 C 37.070312 -68.46875 41.460938 -67.882812 45.859375 -66.71875 C 50.253906 -65.5625 53.875 -64.035156 56.71875 -62.140625 L 52.703125 -54.78125 C 47.109375 -58.65625 40.4375 -60.59375 32.6875 -60.59375 C 26.832031 -60.59375 22.414062 -59.554688 19.4375 -57.484375 C 16.46875 -55.421875 14.984375 -52.707031 14.984375 -49.34375 C 14.984375 -46.757812 15.820312 -44.691406 17.5 -43.140625 C 19.1875 -41.597656 21.273438 -40.457031 23.765625 -39.71875 C 26.265625 -38.988281 29.710938 -38.238281 34.109375 -37.46875 C 39.535156 -36.4375 43.882812 -35.398438 47.15625 -34.359375 C 50.425781 -33.328125 53.222656 -31.5625 55.546875 -29.0625 C 57.867188 -26.570312 59.03125 -23.128906 59.03125 -18.734375 C 59.03125 -12.785156 56.554688 -8.066406 51.609375 -4.578125 C 46.660156 -1.097656 39.789062 0.640625 31 0.640625 Z M 31 0.640625 "/></g></g></g><g fill="#ffffff" fill-opacity="1"><g transform="translate(102.187335, 158.010439)"><g><path d="M 36.5625 -68.46875 C 45.425781 -68.46875 52.226562 -66.25 56.96875 -61.8125 C 61.707031 -57.375 64.078125 -50.804688 64.078125 -42.109375 L 64.078125 0 L 55.296875 0 L 55.296875 -10.59375 C 53.222656 -7.0625 50.179688 -4.304688 46.171875 -2.328125 C 42.171875 -0.347656 37.414062 0.640625 31.90625 0.640625 C 24.332031 0.640625 18.304688 -1.164062 13.828125 -4.78125 C 9.347656 -8.394531 7.109375 -13.175781 7.109375 -19.125 C 7.109375 -24.894531 9.195312 -29.546875 13.375 -33.078125 C 17.550781 -36.609375 24.203125 -38.375 33.328125 -38.375 L 54.90625 -38.375 L 54.90625 -42.5 C 54.90625 -48.351562 53.269531 -52.804688 50 -55.859375 C 46.726562 -58.921875 41.945312 -60.453125 35.65625 -60.453125 C 31.351562 -60.453125 27.21875 -59.742188 23.25 -58.328125 C 19.289062 -56.910156 15.890625 -54.953125 13.046875 -52.453125 L 8.90625 -59.296875 C 12.351562 -62.222656 16.488281 -64.484375 21.3125 -66.078125 C 26.132812 -67.671875 31.21875 -68.46875 36.5625 -68.46875 Z M 33.328125 -6.59375 C 38.492188 -6.59375 42.925781 -7.773438 46.625 -10.140625 C 50.332031 -12.503906 53.09375 -15.925781 54.90625 -20.40625 L 54.90625 -31.515625 L 33.59375 -31.515625 C 21.96875 -31.515625 16.15625 -27.46875 16.15625 -19.375 C 16.15625 -15.414062 17.660156 -12.296875 20.671875 -10.015625 C 23.679688 -7.734375 27.898438 -6.59375 33.328125 -6.59375 Z M 33.328125 -6.59375 "/></g></g></g><g fill="#ffffff" fill-opacity="1"><g transform="translate(178.407971, 158.010439)"><g><path d="M 74.796875 -67.953125 L 74.796875 25.0625 L 65.625 25.0625 L 65.625 -12.796875 C 62.78125 -8.398438 59.140625 -5.0625 54.703125 -2.78125 C 50.273438 -0.5 45.304688 0.640625 39.796875 0.640625 C 33.328125 0.640625 27.53125 -0.800781 22.40625 -3.6875 C 17.289062 -6.570312 13.265625 -10.640625 10.328125 -15.890625 C 7.398438 -21.140625 5.9375 -27.164062 5.9375 -33.96875 C 5.9375 -40.6875 7.398438 -46.671875 10.328125 -51.921875 C 13.265625 -57.179688 17.316406 -61.253906 22.484375 -64.140625 C 27.648438 -67.023438 33.421875 -68.46875 39.796875 -68.46875 C 45.472656 -68.46875 50.570312 -67.257812 55.09375 -64.84375 C 59.613281 -62.4375 63.253906 -58.992188 66.015625 -54.515625 L 66.015625 -67.953125 Z M 40.5625 -7.5 C 45.300781 -7.5 49.585938 -8.59375 53.421875 -10.78125 C 57.253906 -12.976562 60.265625 -16.097656 62.453125 -20.140625 C 64.648438 -24.191406 65.75 -28.800781 65.75 -33.96875 C 65.75 -39.144531 64.648438 -43.734375 62.453125 -47.734375 C 60.265625 -51.734375 57.253906 -54.851562 53.421875 -57.09375 C 49.585938 -59.332031 45.300781 -60.453125 40.5625 -60.453125 C 35.738281 -60.453125 31.410156 -59.332031 27.578125 -57.09375 C 23.742188 -54.851562 20.726562 -51.734375 18.53125 -47.734375 C 16.34375 -43.734375 15.25 -39.144531 15.25 -33.96875 C 15.25 -28.800781 16.34375 -24.191406 18.53125 -20.140625 C 20.726562 -16.097656 23.742188 -12.976562 27.578125 -10.78125 C 31.410156 -8.59375 35.738281 -7.5 40.5625 -7.5 Z M 40.5625 -7.5 "/></g></g></g><g fill="#ffffff" fill-opacity="1"><g transform="translate(265.99712, 158.010439)"><g><path d="M 74.03125 -67.953125 L 74.03125 0 L 65.234375 0 L 65.234375 -12.40625 C 62.828125 -8.269531 59.515625 -5.0625 55.296875 -2.78125 C 51.078125 -0.5 46.253906 0.640625 40.828125 0.640625 C 31.953125 0.640625 24.953125 -1.832031 19.828125 -6.78125 C 14.703125 -11.726562 12.140625 -18.984375 12.140625 -28.546875 L 12.140625 -67.953125 L 21.3125 -67.953125 L 21.3125 -29.453125 C 21.3125 -22.304688 23.078125 -16.878906 26.609375 -13.171875 C 30.140625 -9.472656 35.179688 -7.625 41.734375 -7.625 C 48.878906 -7.625 54.519531 -9.796875 58.65625 -14.140625 C 62.789062 -18.492188 64.859375 -24.546875 64.859375 -32.296875 L 64.859375 -67.953125 Z M 74.03125 -67.953125 "/></g></g></g><g fill="#ffffff" fill-opacity="1"><g transform="translate(352.940308, 158.010439)"><g><path d="M 71.953125 -31.140625 L 15.109375 -31.140625 C 15.628906 -24.078125 18.34375 -18.367188 23.25 -14.015625 C 28.164062 -9.671875 34.367188 -7.5 41.859375 -7.5 C 46.078125 -7.5 49.953125 -8.25 53.484375 -9.75 C 57.015625 -11.257812 60.070312 -13.476562 62.65625 -16.40625 L 67.828125 -10.46875 C 64.804688 -6.84375 61.035156 -4.082031 56.515625 -2.1875 C 51.992188 -0.300781 47.019531 0.640625 41.59375 0.640625 C 34.625 0.640625 28.445312 -0.84375 23.0625 -3.8125 C 17.675781 -6.78125 13.472656 -10.890625 10.453125 -16.140625 C 7.441406 -21.398438 5.9375 -27.34375 5.9375 -33.96875 C 5.9375 -40.601562 7.378906 -46.546875 10.265625 -51.796875 C 13.148438 -57.054688 17.113281 -61.148438 22.15625 -64.078125 C 27.195312 -67.003906 32.859375 -68.46875 39.140625 -68.46875 C 45.429688 -68.46875 51.070312 -67.003906 56.0625 -64.078125 C 61.0625 -61.148438 64.984375 -57.078125 67.828125 -51.859375 C 70.671875 -46.648438 72.09375 -40.6875 72.09375 -33.96875 Z M 39.140625 -60.59375 C 32.597656 -60.59375 27.109375 -58.503906 22.671875 -54.328125 C 18.234375 -50.148438 15.710938 -44.703125 15.109375 -37.984375 L 63.296875 -37.984375 C 62.691406 -44.703125 60.171875 -50.148438 55.734375 -54.328125 C 51.304688 -58.503906 45.773438 -60.59375 39.140625 -60.59375 Z M 39.140625 -60.59375 "/></g></g></g><g fill="#09e85e" fill-opacity="1"><g transform="translate(430.997766, 157.381579)"><g><path d="M 11.238281 1.421875 C 17.828125 1.421875 22.996094 -2.84375 24.15625 -9.042969 C 25.578125 -16.277344 21.1875 -21.960938 13.695312 -21.960938 C 7.105469 -21.960938 2.066406 -17.699219 0.773438 -11.367188 C -0.644531 -4.261719 3.746094 1.421875 11.238281 1.421875 Z M 11.238281 1.421875 "/></g></g></g><g fill="#09e85e" fill-opacity="1"><g transform="translate(465.359625, 157.381579)"><g><path d="M 4.132812 0 L 40.304688 0 C 69.246094 0 90.949219 -16.664062 96.117188 -42.761719 C 101.542969 -70.277344 85.265625 -90.429688 57.359375 -90.429688 L 22.21875 -90.429688 Z M 28.679688 -18.863281 L 39.144531 -71.570312 L 54 -71.570312 C 70.148438 -71.570312 78.546875 -61.363281 75.316406 -45.601562 C 72.085938 -29.585938 58.910156 -18.863281 42.632812 -18.863281 Z M 28.679688 -18.863281 "/></g></g></g><g fill="#09e85e" fill-opacity="1"><g transform="translate(565.21573, 157.381579)"><g><path d="M 35.914062 1.808594 C 52.449219 1.808594 67.046875 -6.589844 75.574219 -21.316406 L 54.644531 -21.316406 C 50.511719 -16.664062 44.3125 -13.953125 37.722656 -13.953125 C 28.550781 -13.953125 23.125 -19.378906 23.382812 -28.292969 L 77.769531 -28.292969 C 83.457031 -52.578125 71.3125 -69.632812 47.800781 -69.632812 C 26.355469 -69.632812 9.429688 -55.808594 5.167969 -35.140625 C 0.773438 -13.433594 13.566406 1.808594 35.914062 1.808594 Z M 26.355469 -40.695312 C 30.230469 -48.832031 37.59375 -54 46.636719 -54 C 55.421875 -54 60.71875 -49.21875 61.234375 -40.695312 Z M 26.355469 -40.695312 "/></g></g></g><g fill="#09e85e" fill-opacity="1"><g transform="translate(649.053522, 157.381579)"><g><path d="M 22.609375 0 L 42.117188 0 L 84.101562 -67.824219 L 61.621094 -67.824219 L 49.609375 -46.507812 L 36.042969 -23.511719 L 31.523438 -46.507812 L 28.292969 -67.824219 L 7.878906 -67.824219 Z M 22.609375 0 "/></g></g></g></svg>